<?xml version="1.0" encoding="UTF-8" standalone="no"?>
<!DOCTYPE svg PUBLIC "-//W3C//DTD SVG 1.1//EN" "http://www.w3.org/Graphics/SVG/1.1/DTD/svg11.dtd">
<svg width="100%" height="100%" viewBox="0 0 59 59" version="1.1" xmlns="http://www.w3.org/2000/svg" xmlns:xlink="http://www.w3.org/1999/xlink" xml:space="preserve" xmlns:serif="http://www.serif.com/" style="fill-rule:evenodd;clip-rule:evenodd;stroke-linejoin:round;stroke-miterlimit:2;">
    <g transform="matrix(1,0,0,1,-433,-75)">
        <g transform="matrix(2,0,0,2,0,0)">
            <g transform="matrix(0.5,0,0,0.5,-1.38905,-0.427908)">
                <path d="M465.459,76.068C481.575,76.068 494.659,89.152 494.659,105.268C494.659,121.384 481.575,134.468 465.459,134.468C449.343,134.468 436.259,121.384 436.259,105.268C436.259,89.152 449.343,76.068 465.459,76.068ZM482.559,98.624C482.559,92.853 477.874,88.168 472.103,88.168L458.816,88.168C453.045,88.168 448.359,92.853 448.359,98.624L448.359,111.912C448.359,117.683 453.045,122.368 458.816,122.368L472.103,122.368C477.874,122.368 482.559,117.683 482.559,111.912L482.559,98.624ZM479.759,99.712C479.759,94.887 475.841,90.969 471.015,90.969L459.904,90.969C455.078,90.969 451.16,94.887 451.16,99.712L451.16,110.824C451.16,115.649 455.078,119.567 459.904,119.567L471.015,119.567C475.841,119.567 479.759,115.649 479.759,110.824L479.759,99.712ZM465.599,96.783C460.943,96.783 457.157,100.569 457.157,105.225C457.157,109.883 460.943,113.671 465.599,113.671C470.257,113.671 474.043,109.883 474.043,105.225C474.043,100.569 470.257,96.783 465.599,96.783ZM465.599,110.635C462.617,110.635 460.191,108.209 460.191,105.225C460.191,102.243 462.617,99.817 465.599,99.817C468.583,99.817 471.009,102.243 471.009,105.225C471.009,108.209 468.583,110.635 465.599,110.635ZM474.535,94.205C473.427,94.205 472.525,95.105 472.525,96.215C472.525,97.325 473.427,98.225 474.535,98.225C475.647,98.225 476.547,97.325 476.547,96.215C476.547,95.105 475.647,94.205 474.535,94.205Z" style="fill:white;"/>
            </g>
        </g>
    </g>
</svg>
