<?xml version="1.0" encoding="UTF-8" standalone="no"?>
<!DOCTYPE svg PUBLIC "-//W3C//DTD SVG 1.1//EN" "http://www.w3.org/Graphics/SVG/1.1/DTD/svg11.dtd">
<svg width="100%" height="100%" viewBox="0 0 60 60" version="1.1" xmlns="http://www.w3.org/2000/svg" xmlns:xlink="http://www.w3.org/1999/xlink" xml:space="preserve" xmlns:serif="http://www.serif.com/" style="fill-rule:evenodd;clip-rule:evenodd;stroke-linejoin:round;stroke-miterlimit:2;">
    <g transform="matrix(1,0,0,1,-522,-75)">
        <g transform="matrix(2,0,0,2,0,0)">
            <g transform="matrix(0.5,0,0,0.5,0,0)">
                <path d="M581.198,105.06C581.198,121.21 568.106,134.304 551.954,134.304C535.804,134.304 522.71,121.21 522.71,105.06C522.71,88.91 535.804,75.818 551.954,75.818C568.106,75.818 581.198,88.91 581.198,105.06ZM568.112,95.04C567.098,95.498 565.978,95.776 564.886,95.96C565.404,95.872 566.166,94.934 566.472,94.554C566.938,93.974 567.324,93.314 567.542,92.602L567.536,92.434L567.364,92.448C566.144,93.102 564.882,93.576 563.538,93.912L563.276,93.842L562.942,93.5C562.376,93.02 561.772,92.642 561.09,92.364C560.194,92 559.212,91.846 558.248,91.908C557.308,91.968 556.386,92.232 555.552,92.668C554.716,93.104 553.972,93.712 553.378,94.444C552.764,95.202 552.312,96.098 552.08,97.046C551.856,97.962 551.874,98.866 552.012,99.792L551.878,99.944C546.626,99.164 542.274,97.284 538.738,93.256C538.586,93.082 538.502,93.082 538.376,93.27C536.83,95.588 537.58,99.312 539.512,101.142C539.77,101.388 540.036,101.632 540.32,101.854C540.214,101.876 538.93,101.736 537.784,101.142L537.538,101.276C537.526,101.526 537.546,101.756 537.582,102.028C537.878,104.378 539.506,106.552 541.734,107.4C542,107.512 542.29,107.608 542.576,107.658C542.068,107.768 541.546,107.848 540.09,107.734C539.908,107.7 539.84,107.79 539.908,107.964C541.004,110.946 543.366,111.834 545.134,112.34C545.37,112.382 545.608,112.382 545.846,112.436L545.802,112.478C545.216,113.374 543.182,114.04 542.234,114.37C540.512,114.972 538.636,115.244 536.814,115.064C536.524,115.02 536.462,115.024 536.382,115.064L536.466,115.258C536.836,115.502 537.212,115.72 537.596,115.928C538.752,116.54 539.956,117.028 541.218,117.378C547.728,119.176 555.062,117.854 559.952,112.996C563.79,109.182 565.136,103.922 565.136,98.656C565.136,98.45 565.378,98.336 565.524,98.226C566.524,97.476 567.328,96.578 568.074,95.576C568.24,95.35 568.242,95.15 568.242,95.068L568.242,95.04L568.112,95.04Z" style="fill:white;fill-rule:nonzero;"/>
            </g>
        </g>
    </g>
</svg>
