<?xml version="1.0" encoding="UTF-8" standalone="no"?>
<!DOCTYPE svg PUBLIC "-//W3C//DTD SVG 1.1//EN" "http://www.w3.org/Graphics/SVG/1.1/DTD/svg11.dtd">
<svg width="100%" height="100%" viewBox="0 0 60 60" version="1.1" xmlns="http://www.w3.org/2000/svg" xmlns:xlink="http://www.w3.org/1999/xlink" xml:space="preserve" xmlns:serif="http://www.serif.com/" style="fill-rule:evenodd;clip-rule:evenodd;stroke-linejoin:round;stroke-miterlimit:2;">
    <g transform="matrix(1,0,0,1,-518,-160)">
        <g transform="matrix(2,0,0,2,0,0)">
            <g transform="matrix(0.5,0,0,0.5,0,0)">
                <path d="M547.875,160.677C563.991,160.677 577.075,173.762 577.075,189.877C577.075,205.993 563.991,219.077 547.875,219.077C531.759,219.077 518.675,205.993 518.675,189.877C518.675,173.762 531.759,160.677 547.875,160.677ZM530.912,206.882L533.352,197.783C531.97,195.294 531.244,192.503 531.244,189.671C531.244,180.41 538.78,172.873 548.042,172.873C557.302,172.873 564.838,180.41 564.838,189.671C564.838,198.934 557.302,206.467 548.042,206.467C545.26,206.467 542.514,205.763 540.056,204.432L530.912,206.882ZM540.512,201.023L541.086,201.365C543.202,202.626 545.606,203.291 548.042,203.291C555.55,203.291 561.662,197.182 561.662,189.671C561.662,182.16 555.55,176.048 548.042,176.048C540.53,176.048 534.418,182.16 534.418,189.671C534.418,192.151 535.108,194.593 536.41,196.733L536.764,197.313L535.402,202.391L540.512,201.023ZM554.096,192.314C553.404,191.9 552.504,191.438 551.688,191.77C551.066,192.026 550.666,193.004 550.262,193.504C550.054,193.76 549.806,193.8 549.486,193.672C547.14,192.738 545.344,191.17 544.048,189.014C543.83,188.678 543.868,188.416 544.134,188.104C544.524,187.644 545.016,187.12 545.12,186.502C545.226,185.88 544.934,185.156 544.68,184.602C544.35,183.896 543.986,182.89 543.278,182.49C542.628,182.122 541.77,182.33 541.192,182.8C540.192,183.614 539.71,184.89 539.726,186.154C539.73,186.512 539.772,186.872 539.856,187.218C540.06,188.052 540.444,188.832 540.878,189.572C541.204,190.13 541.56,190.67 541.944,191.192C543.198,192.896 544.76,194.376 546.568,195.484C547.47,196.036 548.442,196.522 549.45,196.854C550.58,197.228 551.586,197.616 552.806,197.384C554.082,197.142 555.342,196.352 555.85,195.122C555.998,194.756 556.074,194.35 555.99,193.966C555.816,193.17 554.738,192.698 554.096,192.314Z" style="fill:white;"/>
            </g>
        </g>
    </g>
</svg>
